<svg xmlns="http://www.w3.org/2000/svg" width="27.4" height="15.64" viewBox="0 0 27.4 15.64">
  <defs>
    <style>
      .cls-1 {
        fill: #fff;
      }
    </style>
  </defs>
  <title>vk</title>
  <g id="Слой_2" data-name="Слой 2">
    <g id="Слой_1-2" data-name="Слой 1">
      <path class="cls-1" d="M2.87.68c.6,0,1.21,0,1.81,0a1.2,1.2,0,0,1,1.14.76A22.63,22.63,0,0,0,6.94,3.83a19.23,19.23,0,0,0,1.89,3,5.39,5.39,0,0,0,.57.6,1,1,0,0,0,.44.23.54.54,0,0,0,.56-.26,2.34,2.34,0,0,0,.26-.77,13.27,13.27,0,0,0,.11-2.67l0-.69a4.09,4.09,0,0,0-.19-1.1,1.38,1.38,0,0,0-1.06-.92l-.3-.07c-.11,0-.15-.07-.1-.17A.74.74,0,0,1,9.23.77a1.84,1.84,0,0,1,1-.6A6.31,6.31,0,0,1,11.55,0c.66,0,1.32,0,2,0a6.29,6.29,0,0,1,1.56.19A1.11,1.11,0,0,1,16,1.25a6.53,6.53,0,0,1,0,1.25c0,.22,0,.43,0,.65,0,.47,0,.94,0,1.41s0,1.07,0,1.6a2.29,2.29,0,0,0,.19,1,1.15,1.15,0,0,0,.2.29.42.42,0,0,0,.58.09A2.49,2.49,0,0,0,17.65,7a15,15,0,0,0,1.46-2.06,23.71,23.71,0,0,0,1.75-3.58.84.84,0,0,1,.76-.6,1.92,1.92,0,0,1,.24,0l3.53,0c.36,0,.73,0,1.09,0a1.88,1.88,0,0,1,.58.13.54.54,0,0,1,.33.61A3.3,3.3,0,0,1,27,2.64,19.12,19.12,0,0,1,25.3,5.23L23.43,7.69a4.88,4.88,0,0,0-.42.74,1,1,0,0,0,.13,1,7.26,7.26,0,0,0,.9.94,27,27,0,0,1,2,2A7.93,7.93,0,0,1,27.2,14a1.88,1.88,0,0,1,.18.5.68.68,0,0,1-.27.72,1.68,1.68,0,0,1-.91.33c-.38,0-.77,0-1.15,0l-1.9,0-.8,0A2.66,2.66,0,0,1,21,15.27a4.49,4.49,0,0,1-1.11-.88L18.4,12.76a3.93,3.93,0,0,0-.73-.62.78.78,0,0,0-1.15.25,2.39,2.39,0,0,0-.39,1.09c-.05.38-.07.76-.1,1.14a2.38,2.38,0,0,1-.05.26.83.83,0,0,1-.68.64,1.33,1.33,0,0,1-.34.05H13.54A8.73,8.73,0,0,1,8.9,14.29,10.94,10.94,0,0,1,6,11.81,29.85,29.85,0,0,1,3.46,8.22c-.85-1.39-1.63-2.83-2.35-4.3C.76,3.2.43,2.48.1,1.76A1,1,0,0,1,0,1.2.44.44,0,0,1,.26.86,1.64,1.64,0,0,1,1,.7H2.87Z"/>
    </g>
  </g>
</svg>
