<svg xmlns="http://www.w3.org/2000/svg" width="8.56" height="17.89" viewBox="0 0 8.56 17.89">
  <defs>
    <style>
      .cls-1 {
        fill: #fff;
      }
    </style>
  </defs>
  <title>fb</title>
  <g id="Слой_2" data-name="Слой 2">
    <g id="Слой_1-2" data-name="Слой 1">
      <g id="PagOPo">
        <path class="cls-1" d="M5.71,5.83H8.56c0,.47-.06.91-.1,1.35s-.09.94-.12,1.42c0,.23-.11.33-.35.33H5.7v8.49c0,.47,0,.47-.49.47-1,0-2,0-2.95,0-.3,0-.37-.1-.37-.39,0-2.7,0-5.4,0-8.1V9H0V5.84H1.89V5.29A22.27,22.27,0,0,1,2,2.7,2.78,2.78,0,0,1,4.41.16,20.65,20.65,0,0,1,8.34,0a.3.3,0,0,1,.2.21c0,.93,0,1.85,0,2.78,0,.23-.15.22-.31.22H6.43c-.5,0-.71.2-.72.71S5.71,5.17,5.71,5.83Z"/>
      </g>
    </g>
  </g>
</svg>
