<svg xmlns="http://www.w3.org/2000/svg" width="16" height="16" viewBox="0 0 16 16">
  <defs>
    <style>
      .cls-1, .cls-2 {
        fill: none;
      }

      .cls-1 {
        stroke: #808080;
        stroke-linecap: round;
        stroke-linejoin: round;
      }
    </style>
  </defs>
  <title>warn</title>
  <g id="Слой_2" data-name="Слой 2">
    <g id="Слой_1-2" data-name="Слой 1">
      <g>
        <path class="cls-1" d="M6.86,2.57,1.21,12a1.34,1.34,0,0,0,.49,1.82,1.25,1.25,0,0,0,.65.18h11.3A1.34,1.34,0,0,0,15,12.65a1.47,1.47,0,0,0-.18-.65L9.14,2.57a1.33,1.33,0,0,0-1.83-.45A1.49,1.49,0,0,0,6.86,2.57Z"/>
        <line class="cls-1" x1="8" y1="6" x2="8" y2="8.67"/>
        <line class="cls-1" x1="8" y1="11.33" x2="8" y2="11.33"/>
        <rect class="cls-2" width="16" height="16"/>
      </g>
    </g>
  </g>
</svg>
